<svg width="40" height="40" viewBox="0 0 40 40" fill="none" xmlns="http://www.w3.org/2000/svg">
<rect width="40" height="40" rx="10" fill="url(#paint0_linear_5652_801)"/>
<path d="M25.8476 27.7976L25.7 27.8L14.3 27.8C14.2504 27.8 14.2012 27.7992 14.1524 27.7976C14.3382 28.3248 14.6831 28.7813 15.1394 29.1041C15.5957 29.427 16.141 29.6002 16.7 29.6L23.3 29.6C23.859 29.6002 24.4042 29.427 24.8606 29.1041C25.3169 28.7813 25.6618 28.3248 25.8476 27.7976ZM30.8 19.7C30.8 20.4161 30.5155 21.1028 30.0092 21.6092C29.5028 22.1155 28.8161 22.4 28.1 22.4L11.9 22.4C11.5454 22.4 11.1943 22.3302 10.8667 22.1945C10.5392 22.0588 10.2415 21.8599 9.9908 21.6092C9.74008 21.3585 9.5412 21.0608 9.40551 20.7332C9.26983 20.4057 9.19999 20.0546 9.19999 19.7L9.19999 13.1C9.19999 12.7454 9.26983 12.3943 9.40552 12.0667C9.5412 11.7392 9.74008 11.4415 9.9908 11.1908C10.2415 10.9401 10.5392 10.7412 10.8667 10.6055C11.1943 10.4698 11.5454 10.4 11.9 10.4L28.1 10.4C28.8161 10.4 29.5028 10.6845 30.0092 11.1908C30.5155 11.6972 30.8 12.3839 30.8 13.1L30.8 19.7ZM28.1 24.2L28.2476 24.1976C28.0618 24.7248 27.7169 25.1813 27.2606 25.5041C26.8042 25.827 26.259 26.0002 25.7 26L14.3 26C13.124 26 12.1232 25.2476 11.7524 24.1976L11.9 24.2L28.1 24.2Z" fill="url(#paint1_linear_5652_801)"/>
<defs>
<linearGradient id="paint0_linear_5652_801" x1="20" y1="0" x2="20" y2="40" gradientUnits="userSpaceOnUse">
<stop/>
<stop offset="1" stop-color="#202020"/>
</linearGradient>
<linearGradient id="paint1_linear_5652_801" x1="20" y1="17.5" x2="20" y2="35" gradientUnits="userSpaceOnUse">
<stop stop-color="white"/>
<stop offset="1" stop-color="#4B4B4B"/>
</linearGradient>
</defs>
</svg>
