<svg width="146" height="40" viewBox="0 0 146 40" fill="none" xmlns="http://www.w3.org/2000/svg">
<path d="M136.999 32.4935C135.201 32.4935 133.622 32.1042 132.262 31.3256C130.902 30.5469 129.838 29.4667 129.07 28.0849C128.314 26.7031 127.935 25.1129 127.935 23.3144C127.935 21.3733 128.308 19.6899 129.054 18.2642C129.8 16.8276 130.836 15.7145 132.163 14.9249C133.49 14.1353 135.025 13.7405 136.769 13.7405C138.611 13.7405 140.174 14.1737 141.457 15.0401C142.751 15.8954 143.711 17.1073 144.336 18.6755C144.961 20.2437 145.197 22.0916 145.043 24.2192H141.112V22.7715C141.101 20.8414 140.761 19.4322 140.092 18.5439C139.423 17.6556 138.37 17.2115 136.934 17.2115C135.311 17.2115 134.104 17.7159 133.315 18.7248C132.525 19.7228 132.13 21.1869 132.13 23.117C132.13 24.9155 132.525 26.3083 133.315 27.2953C134.104 28.2823 135.256 28.7758 136.769 28.7758C137.745 28.7758 138.584 28.562 139.286 28.1343C139.999 27.6956 140.547 27.065 140.931 26.2425L144.846 27.4269C144.166 29.028 143.113 30.2727 141.688 31.161C140.273 32.0493 138.71 32.4935 136.999 32.4935ZM130.88 24.2192V21.2253H143.102V24.2192H130.88Z" fill="black"/>
<path d="M119.628 32.4935C117.434 32.4935 115.652 32 114.281 31.013C112.911 30.026 112.077 28.6387 111.781 26.8512L115.828 26.226C116.036 27.1034 116.497 27.7943 117.21 28.2988C117.922 28.8032 118.822 29.0555 119.907 29.0555C120.861 29.0555 121.596 28.869 122.112 28.4962C122.638 28.1123 122.901 27.5914 122.901 26.9334C122.901 26.5276 122.803 26.2041 122.605 25.9629C122.419 25.7106 122.002 25.4693 121.355 25.239C120.708 25.0087 119.715 24.7181 118.377 24.3672C116.886 23.9724 115.702 23.5502 114.824 23.1005C113.947 22.6399 113.316 22.0971 112.933 21.472C112.549 20.8469 112.357 20.0902 112.357 19.2019C112.357 18.0943 112.647 17.1292 113.229 16.3067C113.81 15.4842 114.621 14.8536 115.663 14.415C116.705 13.9653 117.933 13.7405 119.348 13.7405C120.73 13.7405 121.953 13.9544 123.016 14.382C124.091 14.8097 124.957 15.4184 125.615 16.208C126.273 16.9976 126.679 17.9243 126.833 18.9881L122.786 19.7119C122.687 18.9552 122.342 18.3575 121.75 17.9188C121.168 17.4801 120.39 17.2334 119.414 17.1786C118.482 17.1237 117.73 17.2663 117.16 17.6063C116.59 17.9353 116.305 18.4013 116.305 19.0045C116.305 19.3445 116.42 19.6351 116.65 19.8764C116.881 20.1176 117.341 20.3589 118.032 20.6002C118.734 20.8414 119.776 21.1375 121.158 21.4884C122.572 21.8503 123.702 22.2671 124.546 22.7386C125.402 23.1992 126.016 23.7531 126.389 24.4001C126.772 25.0471 126.964 25.8313 126.964 26.7525C126.964 28.54 126.312 29.9437 125.007 30.9636C123.713 31.9835 121.92 32.4935 119.628 32.4935Z" fill="black"/>
<path d="M100.425 32.4935C99.1418 32.4935 98.0561 32.2522 97.1678 31.7697C96.2795 31.2762 95.605 30.6237 95.1444 29.8121C94.6948 29.0006 94.47 28.1068 94.47 27.1308C94.47 26.2754 94.6125 25.5077 94.8977 24.8278C95.1828 24.1369 95.6215 23.5447 96.2137 23.0512C96.8059 22.5467 97.5735 22.1355 98.5167 21.8174C99.2295 21.5871 100.063 21.3788 101.017 21.1924C101.982 21.0059 103.024 20.8359 104.143 20.6824C105.272 20.5179 106.451 20.3424 107.679 20.156L106.265 20.9621C106.276 19.7338 106.001 18.829 105.442 18.2478C104.883 17.6666 103.94 17.3759 102.613 17.3759C101.812 17.3759 101.039 17.5624 100.293 17.9353C99.5475 18.3081 99.0266 18.9497 98.7305 19.8599L95.1115 18.7248C95.5502 17.2224 96.3837 16.0161 97.6119 15.1059C98.8512 14.1956 100.518 13.7405 102.613 13.7405C104.192 13.7405 105.579 13.9982 106.775 14.5136C107.981 15.0291 108.875 15.8735 109.456 17.047C109.774 17.6721 109.966 18.3136 110.032 18.9716C110.097 19.6186 110.13 20.326 110.13 21.0937V32H106.659V28.1507L107.235 28.7758C106.435 30.0589 105.497 31.002 104.422 31.6052C103.358 32.1974 102.026 32.4935 100.425 32.4935ZM101.214 29.3351C102.114 29.3351 102.881 29.1761 103.517 28.8581C104.154 28.54 104.658 28.1507 105.031 27.6901C105.415 27.2295 105.672 26.7963 105.804 26.3906C106.012 25.8861 106.128 25.3103 106.149 24.6633C106.182 24.0053 106.199 23.4734 106.199 23.0676L107.416 23.4296C106.221 23.616 105.195 23.7805 104.34 23.923C103.485 24.0656 102.75 24.2027 102.136 24.3343C101.522 24.4549 100.979 24.592 100.507 24.7456C100.047 24.91 99.6572 25.102 99.3392 25.3213C99.0211 25.5406 98.7744 25.7929 98.5989 26.078C98.4344 26.3631 98.3522 26.6976 98.3522 27.0814C98.3522 27.5201 98.4618 27.9094 98.6812 28.2494C98.9005 28.5784 99.2185 28.8416 99.6353 29.039C100.063 29.2364 100.589 29.3351 101.214 29.3351Z" fill="black"/>
<path d="M85.3662 32.4935C83.6334 32.4935 82.1803 32.0822 81.0069 31.2597C79.8335 30.4372 78.9507 29.3186 78.3585 27.9039C77.7663 26.4783 77.4702 24.8826 77.4702 23.117C77.4702 21.3294 77.7663 19.7283 78.3585 18.3136C78.9507 16.8989 79.817 15.7858 80.9576 14.9742C82.1091 14.1517 83.5293 13.7405 85.2181 13.7405C86.896 13.7405 88.3491 14.1517 89.5774 14.9742C90.8166 15.7858 91.7762 16.8989 92.4561 18.3136C93.136 19.7173 93.476 21.3185 93.476 23.117C93.476 24.8936 93.1415 26.4892 92.4726 27.9039C91.8036 29.3186 90.8605 30.4372 89.6432 31.2597C88.4259 32.0822 87.0002 32.4935 85.3662 32.4935ZM76.7957 32V8.312H80.7931V19.5309H80.2996V32H76.7957ZM84.7575 28.9403C85.7884 28.9403 86.6383 28.6826 87.3073 28.1671C87.9762 27.6517 88.4697 26.9553 88.7878 26.078C89.1168 25.1897 89.2813 24.2027 89.2813 23.117C89.2813 22.0423 89.1168 21.0662 88.7878 20.1889C88.4588 19.3006 87.9488 18.5987 87.2579 18.0833C86.567 17.5569 85.6897 17.2937 84.6259 17.2937C83.617 17.2937 82.7945 17.5404 82.1584 18.0339C81.5224 18.5165 81.0508 19.1964 80.7437 20.0737C80.4476 20.9401 80.2996 21.9545 80.2996 23.117C80.2996 24.2685 80.4476 25.2829 80.7437 26.1602C81.0508 27.0376 81.5278 27.723 82.1749 28.2165C82.8329 28.699 83.6937 28.9403 84.7575 28.9403Z" fill="black"/>
<path d="M69.5816 11.5362V7.90075H73.5461V11.5362H69.5816ZM69.5816 32V14.234H73.5461V32H69.5816Z" fill="black"/>
<path d="M56.9652 32.5099C55.6492 32.5099 54.5635 32.2906 53.7081 31.852C52.8527 31.4133 52.1728 30.854 51.6683 30.174C51.1639 29.4941 50.791 28.7703 50.5497 28.0027C50.3085 27.235 50.1495 26.5112 50.0727 25.8312C50.0069 25.1403 49.974 24.5811 49.974 24.1534V14.234H53.9878V22.788C53.9878 23.3363 54.0262 23.956 54.1029 24.6469C54.1797 25.3268 54.3552 25.9848 54.6293 26.6208C54.9145 27.2459 55.3312 27.7614 55.8795 28.1671C56.4388 28.5729 57.1901 28.7758 58.1332 28.7758C58.6377 28.7758 59.1366 28.6935 59.6301 28.529C60.1236 28.3645 60.5678 28.0849 60.9626 27.6901C61.3684 27.2843 61.6919 26.7305 61.9331 26.0287C62.1744 25.3268 62.295 24.4385 62.295 23.3638L64.6474 24.3672C64.6474 25.8806 64.3513 27.2514 63.7591 28.4797C63.1779 29.708 62.317 30.6895 61.1764 31.4243C60.0359 32.1481 58.6322 32.5099 56.9652 32.5099ZM62.7721 32V26.4893H62.295V14.234H66.2759V32H62.7721Z" fill="black"/>
<rect width="40" height="40" rx="10" fill="url(#paint0_linear_5652_797)"/>
<path d="M25.8476 27.7976L25.7 27.8L14.3 27.8C14.2504 27.8 14.2012 27.7992 14.1524 27.7976C14.3382 28.3248 14.6831 28.7813 15.1394 29.1041C15.5957 29.427 16.141 29.6002 16.7 29.6L23.3 29.6C23.859 29.6002 24.4042 29.427 24.8606 29.1041C25.3169 28.7813 25.6618 28.3248 25.8476 27.7976ZM30.8 19.7C30.8 20.4161 30.5155 21.1028 30.0092 21.6092C29.5028 22.1155 28.8161 22.4 28.1 22.4L11.9 22.4C11.5454 22.4 11.1943 22.3302 10.8667 22.1945C10.5392 22.0588 10.2415 21.8599 9.9908 21.6092C9.74008 21.3585 9.5412 21.0608 9.40551 20.7332C9.26983 20.4057 9.19999 20.0546 9.19999 19.7L9.19999 13.1C9.19999 12.7454 9.26983 12.3943 9.40552 12.0667C9.5412 11.7392 9.74008 11.4415 9.9908 11.1908C10.2415 10.9401 10.5392 10.7412 10.8667 10.6055C11.1943 10.4698 11.5454 10.4 11.9 10.4L28.1 10.4C28.8161 10.4 29.5028 10.6845 30.0092 11.1908C30.5155 11.6972 30.8 12.3839 30.8 13.1L30.8 19.7ZM28.1 24.2L28.2476 24.1976C28.0618 24.7248 27.7169 25.1813 27.2606 25.5041C26.8042 25.827 26.259 26.0002 25.7 26L14.3 26C13.124 26 12.1232 25.2476 11.7524 24.1976L11.9 24.2L28.1 24.2Z" fill="url(#paint1_linear_5652_797)"/>
<defs>
<linearGradient id="paint0_linear_5652_797" x1="20" y1="0" x2="20" y2="40" gradientUnits="userSpaceOnUse">
<stop/>
<stop offset="1" stop-color="#202020"/>
</linearGradient>
<linearGradient id="paint1_linear_5652_797" x1="20" y1="17.5" x2="20" y2="35" gradientUnits="userSpaceOnUse">
<stop stop-color="white"/>
<stop offset="1" stop-color="#4B4B4B"/>
</linearGradient>
</defs>
</svg>
